<svg xmlns="http://www.w3.org/2000/svg" width="256" height="256" viewBox="0 0 256 256">
<path d="M 148.00 204.00 L 148.00 211.00 L 155.00 211.00 L 155.00 204.00 Z" fill="black" stroke="none"/>
<path d="M 100.00 204.00 L 100.00 211.00 L 107.00 211.00 L 107.00 204.00 Z" fill="black" stroke="none"/>
<path d="M 116.00 200.00 L 116.00 219.00 L 123.00 219.00 L 123.00 200.00 Z" fill="black" stroke="none"/>
<path d="M 42.00 200.00 L 40.00 202.00 L 40.00 204.00 L 39.00 205.00 L 39.00 206.00 L 38.00 207.00 L 38.00 209.00 L 37.00 210.00 L 37.00 212.00 L 36.00 213.00 L 36.00 214.00 L 35.00 215.00 L 35.00 217.00 L 34.00 218.00 L 34.00 220.00 L 33.00 221.00 L 33.00 222.00 L 32.00 223.00 L 32.00 225.00 L 31.00 226.00 L 31.00 228.00 L 30.00 229.00 L 30.00 230.00 L 29.00 231.00 L 29.00 233.00 L 28.00 234.00 L 28.00 237.00 L 30.00 239.00 L 225.00 239.00 L 227.00 237.00 L 227.00 234.00 L 226.00 233.00 L 226.00 231.00 L 225.00 230.00 L 225.00 229.00 L 224.00 228.00 L 224.00 226.00 L 223.00 225.00 L 223.00 223.00 L 222.00 222.00 L 222.00 221.00 L 221.00 220.00 L 221.00 218.00 L 220.00 217.00 L 220.00 215.00 L 219.00 214.00 L 219.00 213.00 L 218.00 212.00 L 218.00 210.00 L 217.00 209.00 L 217.00 207.00 L 216.00 206.00 L 216.00 205.00 L 215.00 204.00 L 215.00 202.00 L 213.00 200.00 L 180.00 200.00 L 180.00 207.00 L 208.00 207.00 L 210.00 209.00 L 210.00 210.00 L 211.00 211.00 L 211.00 213.00 L 212.00 214.00 L 212.00 216.00 L 213.00 217.00 L 213.00 218.00 L 214.00 219.00 L 214.00 221.00 L 215.00 222.00 L 215.00 224.00 L 216.00 225.00 L 216.00 226.00 L 217.00 227.00 L 217.00 229.00 L 218.00 230.00 L 218.00 231.00 L 217.00 232.00 L 38.00 232.00 L 37.00 231.00 L 37.00 230.00 L 38.00 229.00 L 38.00 227.00 L 39.00 226.00 L 39.00 225.00 L 40.00 224.00 L 40.00 222.00 L 41.00 221.00 L 41.00 219.00 L 42.00 218.00 L 42.00 217.00 L 43.00 216.00 L 43.00 214.00 L 44.00 213.00 L 44.00 211.00 L 45.00 210.00 L 45.00 209.00 L 47.00 207.00 L 75.00 207.00 L 75.00 200.00 Z" fill="black" stroke="none"/>
<path d="M 132.00 188.00 L 132.00 219.00 L 139.00 219.00 L 139.00 188.00 Z" fill="black" stroke="none"/>
<path d="M 34.00 188.00 L 32.00 190.00 L 32.00 191.00 L 31.00 192.00 L 31.00 194.00 L 30.00 195.00 L 30.00 196.00 L 29.00 197.00 L 29.00 198.00 L 28.00 199.00 L 28.00 201.00 L 27.00 202.00 L 27.00 203.00 L 26.00 204.00 L 26.00 205.00 L 25.00 206.00 L 25.00 208.00 L 24.00 209.00 L 24.00 210.00 L 23.00 211.00 L 23.00 212.00 L 22.00 213.00 L 22.00 215.00 L 21.00 216.00 L 21.00 217.00 L 20.00 218.00 L 20.00 219.00 L 19.00 220.00 L 19.00 222.00 L 18.00 223.00 L 18.00 224.00 L 17.00 225.00 L 17.00 226.00 L 16.00 227.00 L 16.00 229.00 L 15.00 230.00 L 15.00 231.00 L 14.00 232.00 L 14.00 233.00 L 13.00 234.00 L 13.00 236.00 L 12.00 237.00 L 12.00 238.00 L 11.00 239.00 L 11.00 240.00 L 10.00 241.00 L 10.00 243.00 L 9.00 244.00 L 9.00 245.00 L 8.00 246.00 L 8.00 249.00 L 10.00 251.00 L 245.00 251.00 L 247.00 249.00 L 247.00 246.00 L 246.00 245.00 L 246.00 244.00 L 245.00 243.00 L 245.00 241.00 L 244.00 240.00 L 244.00 239.00 L 243.00 238.00 L 243.00 237.00 L 242.00 236.00 L 242.00 234.00 L 241.00 233.00 L 241.00 232.00 L 240.00 231.00 L 240.00 230.00 L 239.00 229.00 L 239.00 227.00 L 238.00 226.00 L 238.00 225.00 L 237.00 224.00 L 237.00 223.00 L 236.00 222.00 L 236.00 220.00 L 235.00 219.00 L 235.00 218.00 L 234.00 217.00 L 234.00 216.00 L 233.00 215.00 L 233.00 213.00 L 232.00 212.00 L 232.00 211.00 L 231.00 210.00 L 231.00 209.00 L 230.00 208.00 L 230.00 206.00 L 229.00 205.00 L 229.00 204.00 L 228.00 203.00 L 228.00 202.00 L 227.00 201.00 L 227.00 199.00 L 226.00 198.00 L 226.00 197.00 L 225.00 196.00 L 225.00 195.00 L 224.00 194.00 L 224.00 192.00 L 223.00 191.00 L 223.00 190.00 L 221.00 188.00 L 172.00 188.00 L 172.00 195.00 L 217.00 195.00 L 218.00 196.00 L 218.00 198.00 L 219.00 199.00 L 219.00 200.00 L 220.00 201.00 L 220.00 202.00 L 221.00 203.00 L 221.00 205.00 L 222.00 206.00 L 222.00 207.00 L 223.00 208.00 L 223.00 209.00 L 224.00 210.00 L 224.00 212.00 L 225.00 213.00 L 225.00 214.00 L 226.00 215.00 L 226.00 216.00 L 227.00 217.00 L 227.00 219.00 L 228.00 220.00 L 228.00 221.00 L 229.00 222.00 L 229.00 223.00 L 230.00 224.00 L 230.00 226.00 L 231.00 227.00 L 231.00 228.00 L 232.00 229.00 L 232.00 230.00 L 233.00 231.00 L 233.00 233.00 L 234.00 234.00 L 234.00 235.00 L 235.00 236.00 L 235.00 237.00 L 236.00 238.00 L 236.00 240.00 L 237.00 241.00 L 237.00 242.00 L 238.00 243.00 L 237.00 244.00 L 18.00 244.00 L 17.00 243.00 L 18.00 242.00 L 18.00 241.00 L 19.00 240.00 L 19.00 238.00 L 20.00 237.00 L 20.00 236.00 L 21.00 235.00 L 21.00 234.00 L 22.00 233.00 L 22.00 231.00 L 23.00 230.00 L 23.00 229.00 L 24.00 228.00 L 24.00 227.00 L 25.00 226.00 L 25.00 224.00 L 26.00 223.00 L 26.00 222.00 L 27.00 221.00 L 27.00 220.00 L 28.00 219.00 L 28.00 217.00 L 29.00 216.00 L 29.00 215.00 L 30.00 214.00 L 30.00 213.00 L 31.00 212.00 L 31.00 210.00 L 32.00 209.00 L 32.00 208.00 L 33.00 207.00 L 33.00 206.00 L 34.00 205.00 L 34.00 203.00 L 35.00 202.00 L 35.00 201.00 L 36.00 200.00 L 36.00 199.00 L 37.00 198.00 L 37.00 196.00 L 38.00 195.00 L 83.00 195.00 L 83.00 188.00 Z" fill="black" stroke="none"/>
<path d="M 116.00 184.00 L 116.00 191.00 L 123.00 191.00 L 123.00 184.00 Z" fill="black" stroke="none"/>
<path d="M 148.00 160.00 L 148.00 195.00 L 155.00 195.00 L 155.00 160.00 Z" fill="black" stroke="none"/>
<path d="M 100.00 156.00 L 100.00 195.00 L 107.00 195.00 L 107.00 156.00 Z" fill="black" stroke="none"/>
<path d="M 132.00 152.00 L 132.00 179.00 L 139.00 179.00 L 139.00 152.00 Z" fill="black" stroke="none"/>
<path d="M 116.00 152.00 L 116.00 175.00 L 123.00 175.00 L 123.00 152.00 Z" fill="black" stroke="none"/>
<path d="M 186.00 124.00 L 184.00 126.00 L 184.00 145.00 L 186.00 147.00 L 205.00 147.00 L 207.00 145.00 L 207.00 126.00 L 205.00 124.00 Z" fill="black" stroke="none"/>
<path d="M 30.00 68.00 L 28.00 70.00 L 28.00 91.00 L 27.00 92.00 L 14.00 92.00 L 12.00 94.00 L 12.00 121.00 L 14.00 123.00 L 41.00 123.00 L 43.00 121.00 L 43.00 108.00 L 44.00 107.00 L 65.00 107.00 L 67.00 105.00 L 67.00 70.00 L 65.00 68.00 Z" fill="black" stroke="none"/>
<path d="M 119.00 52.00 L 117.00 54.00 L 117.00 60.00 L 116.00 61.00 L 115.00 61.00 L 114.00 62.00 L 113.00 62.00 L 112.00 63.00 L 111.00 63.00 L 110.00 62.00 L 109.00 62.00 L 108.00 61.00 L 108.00 60.00 L 107.00 60.00 L 106.00 59.00 L 102.00 59.00 L 91.00 70.00 L 91.00 74.00 L 95.00 78.00 L 95.00 80.00 L 94.00 81.00 L 94.00 82.00 L 93.00 83.00 L 93.00 84.00 L 92.00 85.00 L 86.00 85.00 L 84.00 87.00 L 84.00 104.00 L 86.00 106.00 L 92.00 106.00 L 93.00 107.00 L 93.00 108.00 L 94.00 109.00 L 94.00 110.00 L 95.00 111.00 L 95.00 113.00 L 91.00 117.00 L 91.00 121.00 L 102.00 132.00 L 106.00 132.00 L 107.00 131.00 L 108.00 131.00 L 108.00 130.00 L 109.00 129.00 L 110.00 129.00 L 111.00 128.00 L 112.00 128.00 L 113.00 129.00 L 114.00 129.00 L 115.00 130.00 L 116.00 130.00 L 117.00 131.00 L 117.00 137.00 L 119.00 139.00 L 136.00 139.00 L 138.00 137.00 L 138.00 131.00 L 139.00 130.00 L 140.00 130.00 L 141.00 129.00 L 142.00 129.00 L 143.00 128.00 L 144.00 128.00 L 145.00 129.00 L 146.00 129.00 L 149.00 132.00 L 153.00 132.00 L 164.00 121.00 L 164.00 117.00 L 162.00 115.00 L 162.00 114.00 L 161.00 114.00 L 160.00 113.00 L 160.00 111.00 L 161.00 110.00 L 161.00 109.00 L 162.00 108.00 L 162.00 107.00 L 163.00 106.00 L 169.00 106.00 L 171.00 104.00 L 171.00 87.00 L 169.00 85.00 L 163.00 85.00 L 162.00 84.00 L 162.00 83.00 L 161.00 82.00 L 161.00 81.00 L 160.00 80.00 L 160.00 78.00 L 161.00 77.00 L 162.00 77.00 L 162.00 76.00 L 164.00 74.00 L 164.00 70.00 L 153.00 59.00 L 149.00 59.00 L 148.00 60.00 L 147.00 60.00 L 147.00 61.00 L 146.00 62.00 L 145.00 62.00 L 144.00 63.00 L 143.00 63.00 L 142.00 62.00 L 141.00 62.00 L 140.00 61.00 L 139.00 61.00 L 138.00 60.00 L 138.00 54.00 L 136.00 52.00 Z" fill="black" stroke="none"/>
<path d="M 38.00 28.00 L 36.00 30.00 L 36.00 53.00 L 38.00 55.00 L 61.00 55.00 L 63.00 53.00 L 63.00 30.00 L 61.00 28.00 Z" fill="black" stroke="none"/>
<path d="M 190.00 16.00 L 188.00 18.00 L 188.00 45.00 L 190.00 47.00 L 203.00 47.00 L 204.00 48.00 L 204.00 55.00 L 203.00 56.00 L 194.00 56.00 L 192.00 58.00 L 192.00 81.00 L 194.00 83.00 L 217.00 83.00 L 219.00 81.00 L 219.00 72.00 L 220.00 71.00 L 241.00 71.00 L 243.00 69.00 L 243.00 34.00 L 241.00 32.00 L 220.00 32.00 L 219.00 31.00 L 219.00 18.00 L 217.00 16.00 Z" fill="black" stroke="none"/>
<path d="M 114.00 4.00 L 112.00 6.00 L 112.00 33.00 L 114.00 35.00 L 141.00 35.00 L 143.00 33.00 L 143.00 6.00 L 141.00 4.00 Z" fill="black" stroke="none"/>
</svg>
